<svg width="395.99999999999994" height="249.9823693407404" viewBox="0 0 100 63.126860944631424" class="looka-1j8o68f">
<defs id="SvgjsDefs1407"></defs>
<g id="SvgjsG1408" featurekey="bQt9oe-0" transform="matrix(3.4578148800639052,0,0,3.4578148800639052,-2.9045642024670486,-21.78423440392845)" fill="#1f2937">
<path d="M7.52 20 l-3.7 -8.18 l0 8.18 l-2.98 0 l0 -13.7 l3.72 0 l4.02 9.06 l4.02 -9.06 l3.72 0 l0 13.7 l-3.04 0 l0 -8.22 l-3.72 8.22 l-2.04 0 z M21.1 12.68 l4.88 -6.38 l3.62 0 l-5.44 6.84 l5.6 6.86 l-4.02 0 l-4.64 -5.84 l0 5.84 l-3.1 0 l0 -13.7 l3.1 0 l0 6.38 z">
</path>
</g>
</svg>